<svg height="512" viewBox="0 0 512 512" width="512" xmlns="http://www.w3.org/2000/svg"><g id="flat"><path d="m256 64h40v40h-40z" fill="#fd9226"/><path d="m296 80h32v32h-32z" fill="#e08122"/><path d="m248 64h16v88h-16z" fill="#cdcdcd"/><path d="m184 192h144v32h-144z" fill="#ebebeb"/><path d="m184 216h144v8h-144z" fill="#dcdcdc"/><path d="m152 224h208v40h-208z" fill="#ebebeb"/><path d="m152 256h208v8h-208z" fill="#dcdcdc"/><path d="m320 296h-8-272v144h272 8 152v-144z" fill="#ebebeb"/><path d="m104 408v32h-32v-32a16 16 0 0 1 32 0z" fill="#6b9777"/><path d="m280 296h32v144h-32z" fill="#f9f9f9"/><path d="m200 296h32v144h-32z" fill="#f9f9f9"/><path d="m192 264h128v32h-128z" fill="#85bc94"/><path d="m376 408v32h-32v-32a16 16 0 1 1 32 0z" fill="#6b9777"/><path d="m440 408v32h-32v-32a16 16 0 1 1 32 0z" fill="#6b9777"/><g fill="#f9f9f9"><path d="m336 352h16v16h-16z"/><path d="m336 320h16v16h-16z"/><path d="m368 352h16v16h-16z"/><path d="m368 320h16v16h-16z"/><path d="m400 352h16v16h-16z"/><path d="m400 320h16v16h-16z"/><path d="m432 352h16v16h-16z"/><path d="m432 320h16v16h-16z"/></g><path d="m168 408v32h-32v-32a16 16 0 0 1 32 0z" fill="#6b9777"/><path d="m96 408v32h-24v-32a15.987 15.987 0 0 1 12-15.5 16.012 16.012 0 0 1 12 15.5z" fill="#85bc94"/><path d="m368 408v32h-24v-32a16.012 16.012 0 0 1 12-15.5 15.987 15.987 0 0 1 12 15.5z" fill="#85bc94"/><path d="m432 408v32h-24v-32a16.012 16.012 0 0 1 12-15.5 15.987 15.987 0 0 1 12 15.5z" fill="#85bc94"/><path d="m160 408v32h-24v-32a15.987 15.987 0 0 1 12-15.5 16.012 16.012 0 0 1 12 15.5z" fill="#85bc94"/><path d="m160 352h16v16h-16z" fill="#f9f9f9"/><path d="m160 320h16v16h-16z" fill="#f9f9f9"/><path d="m128 352h16v16h-16z" fill="#f9f9f9"/><path d="m128 320h16v16h-16z" fill="#f9f9f9"/><path d="m96 352h16v16h-16z" fill="#f9f9f9"/><path d="m96 320h16v16h-16z" fill="#f9f9f9"/><path d="m64 352h16v16h-16z" fill="#f9f9f9"/><path d="m64 320h16v16h-16z" fill="#f9f9f9"/><path d="m360 264-104-64-104 64h-128v32h168v-32h128v32h168v-32z" fill="#85bc94"/><path d="m312 264h-112l56-32z" fill="#5e8569"/><path d="m298 264h-84l42-24z" fill="#6b9777"/><path d="m312.8 192h-113.6a57.606 57.606 0 0 1 113.6 0z" fill="#6cbae5"/><path d="m288 192h-16a49.614 49.614 0 0 0 -14.63-35.31l-1.37-1.38-1.37 1.38a49.614 49.614 0 0 0 -14.63 35.31h-16a65.525 65.525 0 0 1 19.26-46.58 57.861 57.861 0 0 1 25.48 0 65.525 65.525 0 0 1 19.26 46.58z" fill="#4799cf"/><path d="m272 296h8v136h-8z" fill="#cdcdcd"/><path d="m192 296h8v144h-8z" fill="#cdcdcd"/><path d="m280 384v56h-48v-56l20-13.33 4-2.67z" fill="#6b9777"/><path d="m272 384v56h-40v-56l20-13.33z" fill="#85bc94"/><path d="m320 264h16v32h-16z" fill="#6b9777"/><path d="m176 264h16v32h-16z" fill="#6b9777"/><path d="m200 296h32v8h-32z" fill="#f3f3f3"/><path d="m280 296h32v8h-32z" fill="#f3f3f3"/><path d="m312 296h160v8h-160z" fill="#cdcdcd"/><path d="m40 296h160v8h-160z" fill="#cdcdcd"/><path d="m232 296h48v8h-48z" fill="#cdcdcd"/></g></svg>