<svg xmlns="http://www.w3.org/2000/svg" id="Layer_1" width="96" height="96" viewBox="0 0 96 96"><path id="path7" d="M 48 0 C 21.496252 -2e-006 0 21.496252 0 48 C 0 74.503747 21.496252 96.00001 48 96 C 74.503745 96 96 74.503745 96 48 C 96 21.496254 74.503745 1.4210855e-014 48 0 z M 48 1 C 73.963305 1 95 22.036694 95 48 C 95 73.963305 73.963305 95 48 95 C 22.036692 95.00001 1 73.963307 1 48 C 1 22.036693 22.036692 0.999998 48 1 z M 34.5 23 C 33.122 23 32 24.122 32 25.5 L 32 37.5 C 32 38.878 33.122 40 34.5 40 L 48 40 L 48 49.978516 L 45.5 49.978516 C 45.367 49.978516 45.240484 50.031996 45.146484 50.125 L 43.292969 51.978516 L 41.5 51.978516 L 40 51.978516 L 40 51.478516 C 40 51.202516 39.776 50.978516 39.5 50.978516 L 33.5 50.978516 L 26 50.978516 L 25.5 50.978516 C 25.224 50.978516 25 51.202516 25 51.478516 C 25 51.754516 25.224 51.978516 25.5 51.978516 L 26 51.978516 L 33 51.978516 L 33 63.978516 L 26 63.978516 L 25.5 63.978516 C 25.224 63.978516 25 64.202516 25 64.478516 C 25 64.754516 25.224 64.978516 25.5 64.978516 L 26 64.978516 L 33.5 64.978516 L 39.5 64.978516 C 39.776 64.978516 40 64.754516 40 64.478516 L 40 62.978516 L 41.292969 62.978516 L 43.146484 64.832031 C 43.240484 64.926031 43.368953 64.978516 43.501953 64.978516 L 48.001953 64.978516 L 48.001953 73.5 C 48.001953 73.776 48.225953 74 48.501953 74 L 53.501953 74 C 53.777953 74 54.001953 73.776 54.001953 73.5 L 54.001953 64.978516 L 55.001953 64.978516 C 56.104953 64.978516 57.001953 64.081516 57.001953 62.978516 C 57.001953 62.378516 56.730547 61.845516 56.310547 61.478516 C 56.730547 61.111516 57.001953 60.578516 57.001953 59.978516 C 57.001953 59.378516 56.730547 58.845516 56.310547 58.478516 C 56.730547 58.111516 57.001953 57.578516 57.001953 56.978516 C 57.001953 56.378516 56.730547 55.845516 56.310547 55.478516 C 56.730547 55.111516 57.001953 54.578516 57.001953 53.978516 C 57.001953 52.875516 56.104953 51.978516 55.001953 51.978516 L 54.001953 51.978516 L 54.001953 40 L 67.5 40 C 68.879 40 70 38.878 70 37.5 L 70 25.5 C 70 24.122 68.879 23 67.5 23 L 34.5 23 z M 34.5 24 L 67.5 24 C 68.327 24 69 24.673 69 25.5 L 69 37.5 C 69 38.327 68.327 39 67.5 39 L 53.5 39 L 48.5 39 L 34.5 39 C 33.673 39 33 38.327 33 37.5 L 33 25.5 C 33 24.673 33.673 24 34.5 24 z M 34.5 25 C 34.224 25 34 25.224 34 25.5 L 34 29 L 35 29 L 35 26 L 67 26 L 67 29 L 68 29 L 68 25.5 C 68 25.224 67.776 25 67.5 25 L 34.5 25 z M 42 28 C 41.724 28 41.5 28.224 41.5 28.5 L 41.5 33.5 L 41.5 34.5 C 41.5 34.776 41.724 35 42 35 L 46 35 C 46.276 35 46.5 34.776 46.5 34.5 L 46.5 31.5 C 46.5 31.224 46.276 31 46 31 L 44 31 C 43.724 31 43.5 31.224 43.5 31.5 C 43.5 31.776 43.724 32 44 32 L 45.5 32 L 45.5 34 L 42.5 34 L 42.5 33.5 L 42.5 29 L 45.5 29 L 45.5 29.5 C 45.5 29.776 45.724 30 46 30 C 46.276 30 46.5 29.776 46.5 29.5 L 46.5 28.5 C 46.5 28.224 46.276 28 46 28 L 42 28 z M 49 28 C 48.724 28 48.5 28.224 48.5 28.5 L 48.5 31.5 C 48.5 31.776 48.724 32 49 32 L 52.5 32 L 52.5 34 L 49.5 34 L 49.5 33.5 C 49.5 33.224 49.276 33 49 33 C 48.724 33 48.5 33.224 48.5 33.5 L 48.5 34.5 C 48.5 34.776 48.724 35 49 35 L 53 35 C 53.276 35 53.5 34.776 53.5 34.5 L 53.5 31.5 C 53.5 31.224 53.276 31 53 31 L 49.5 31 L 49.5 29 L 52.5 29 L 52.5 29.5 C 52.5 29.776 52.724 30 53 30 C 53.276 30 53.5 29.776 53.5 29.5 L 53.5 28.5 C 53.5 28.224 53.276 28 53 28 L 49 28 z M 56 28 C 55.724 28 55.5 28.224 55.5 28.5 L 55.5 29.5 C 55.5 29.776 55.724 30 56 30 C 56.276 30 56.5 29.776 56.5 29.5 L 56.5 29 L 57.5 29 L 57.5 34.5 C 57.5 34.776 57.724 35 58 35 C 58.276 35 58.5 34.776 58.5 34.5 L 58.5 29 L 59.5 29 L 59.5 29.5 C 59.5 29.776 59.724 30 60 30 C 60.276 30 60.5 29.776 60.5 29.5 L 60.5 28.5 C 60.5 28.224 60.276 28 60 28 L 56 28 z M 34 30 L 34 33 L 35 33 L 35 30 L 34 30 z M 34 34 L 34 37.5 C 34 37.776 34.224 38 34.5 38 L 67.5 38 C 67.776 38 68 37.776 68 37.5 L 68 34 L 67 34 L 67 37 L 35 37 L 35 34 L 34 34 z M 49 40 L 53 40 L 53 51.978516 L 49 51.978516 L 49 40 z M 45.707031 50.978516 L 47.996094 50.978516 L 47.980469 52.474609 C 47.979469 52.608609 48.030999 52.735078 48.125 52.830078 C 48.129 52.834078 48.134702 52.835844 48.138672 52.839844 C 48.229672 52.937844 48.357953 53 48.501953 53 L 53.501953 53 C 53.538953 53 53.571473 52.986516 53.605469 52.978516 L 55 52.978516 C 55.552 52.978516 56 53.427516 56 53.978516 C 56 54.529516 55.552 54.978516 55 54.978516 L 51.478516 54.978516 L 50.478516 54.978516 C 50.202516 54.978516 49.978516 55.202516 49.978516 55.478516 C 49.978516 55.754516 50.202516 55.978516 50.478516 55.978516 L 51.478516 55.978516 L 55 55.978516 C 55.552 55.978516 56 56.427516 56 56.978516 C 56 57.529516 55.552 57.978516 55 57.978516 L 51.478516 57.978516 L 50.478516 57.978516 C 50.202516 57.978516 49.978516 58.202516 49.978516 58.478516 C 49.978516 58.754516 50.202516 58.978516 50.478516 58.978516 L 51.478516 58.978516 L 55 58.978516 C 55.552 58.978516 56 59.427516 56 59.978516 C 56 60.529516 55.552 60.978516 55 60.978516 L 51.478516 60.978516 L 50.478516 60.978516 C 50.202516 60.978516 49.978516 61.202516 49.978516 61.478516 C 49.978516 61.754516 50.202516 61.978516 50.478516 61.978516 L 51.478516 61.978516 L 55 61.978516 C 55.552 61.978516 56 62.427516 56 62.978516 C 56 63.529516 55.552 63.978516 55 63.978516 L 53.5 63.978516 L 51.478516 63.978516 L 43.707031 63.978516 L 41.853516 62.126953 C 41.807516 62.080953 41.752406 62.043573 41.691406 62.017578 C 41.630406 61.992578 41.565 61.978516 41.5 61.978516 L 40 61.978516 L 40 52.978516 L 41.5 52.978516 L 43.5 52.978516 C 43.633 52.978516 43.759516 52.925026 43.853516 52.832031 L 45.707031 50.978516 z M 34 51.978516 L 39 51.978516 L 39 52.478516 L 39 62.478516 L 39 63.978516 L 34 63.978516 L 34 51.978516 z M 36.46875 59.978516 C 35.64175 59.978516 34.96875 60.651516 34.96875 61.478516 C 34.96875 62.305516 35.64175 62.978516 36.46875 62.978516 C 37.29575 62.978516 37.96875 62.305516 37.96875 61.478516 C 37.96875 60.651516 37.29575 59.978516 36.46875 59.978516 z M 36.46875 60.978516 C 36.74475 60.978516 36.96875 61.202516 36.96875 61.478516 C 36.96875 61.754516 36.74475 61.978516 36.46875 61.978516 C 36.19275 61.978516 35.96875 61.754516 35.96875 61.478516 C 35.96875 61.202516 36.19275 60.978516 36.46875 60.978516 z M 49 65 L 53 65 L 53 73 L 49 73 L 49 65 z "/></svg>
